<svg width="0" height="0" class="hidden">
  <symbol xmlns="http://www.w3.org/2000/svg" xmlns:xlink="http://www.w3.org/1999/xlink" version="1.1" xml:space="preserve" viewBox="0 0 1000 1000" id="omni-logo">
    <desc>Created with Fabric.js 3.5.0</desc>
    <defs></defs>
    
    <g transform="matrix(56.8182 0 0 56.8182 500.0001 500.0001)" id="506128">
      <path vector-effect="non-scaling-stroke" transform=" translate(-8, -8)" d="M 14 4.5 V 14 a 2 2 0 0 1 -2 2 H 4 a 2 2 0 0 1 -2 -2 V 2 a 2 2 0 0 1 2 -2 h 5.5 L 14 4.5 z m -3 0 A 1.5 1.5 0 0 1 9.5 3 V 1 H 4 a 1 1 0 0 0 -1 1 v 12 a 1 1 0 0 0 1 1 h 8 a 1 1 0 0 0 1 -1 V 4.5 h -2 z" stroke-linecap="round"></path>
    </g>
    <g transform="matrix(1 0 0 1 500 570.8661)" id="127487">
      <path xml:space="preserve" font-family="Lobster" font-size="480" font-style="normal" font-weight="normal" d="M-21.84 153.67Q-62.16 153.67-84.96 130.63Q-107.76 107.59-107.76 57.19L-107.76 57.19Q-107.76 14.47-92.40-38.81Q-77.04-92.09-47.52-130.01Q-18-167.93 22.32-167.93L22.32-167.93Q36.72-167.93 47.28-164.09L47.28-164.09Q26.16-151.61 6.72-112.73Q-12.72-73.85-24.72-25.85Q-36.72 22.15-36.72 59.11L-36.72 59.11Q-36.72 85.03-30 99.91Q-23.28 114.79-8.88 114.79L-8.88 114.79Q14.64 114.79 37.92 80.95Q61.20 47.11 76.32-4.25Q91.44-55.61 91.44-103.13L91.44-103.13Q91.44-132.89 86.40-150.89Q81.36-168.89 67.92-178.01Q54.48-187.13 30-187.13L30-187.13Q-6.96-187.13-38.64-172.01Q-70.32-156.89-89.28-128.81Q-108.24-100.73-108.24-63.77L-108.24-63.77Q-108.24-50.81-105.84-44.81Q-103.44-38.81-103.44-37.85L-103.44-37.85Q-127.44-37.85-139.68-47.45Q-151.92-57.05-151.92-78.17L-151.92-78.17Q-151.92-111.29-124.80-141.53Q-97.68-171.77-52.80-190.49Q-7.92-209.21 41.52-209.21L41.52-209.21Q101.52-209.21 128.40-176.57Q155.28-143.93 155.28-86.33L155.28-86.33Q155.28-34.97 136.08 20.71Q116.88 76.39 76.80 115.03Q36.72 153.67-21.84 153.67L-21.84 153.67Z"></path>
    </g>
  </symbol>
</svg>